<?xml version="1.0" encoding="UTF-8"?>
<svg width="800" height="800" viewBox="0 0 800 800" fill="none" xmlns="http://www.w3.org/2000/svg">
  <!-- Fundo azul circular -->
  <circle cx="400" cy="400" r="400" fill="#2196F3"/>
  
  <!-- Círculo branco interno -->
  <circle cx="400" cy="400" r="350" fill="white"/>
  
  <!-- Linhas da bola de vôlei -->
  <path d="M400 50C400 50 600 250 600 400C600 550 400 750 400 750" stroke="#333333" stroke-width="8"/>
  <path d="M400 50C400 50 200 250 200 400C200 550 400 750 400 750" stroke="#333333" stroke-width="8"/>
  
  <!-- Curvas da bola -->
  <path d="M150 400C150 400 300 300 400 300C500 300 650 400 650 400" stroke="#333333" stroke-width="8"/>
  <path d="M200 250C200 250 300 350 400 350C500 350 600 250 600 250" stroke="#333333" stroke-width="8"/>
  <path d="M200 550C200 550 300 450 400 450C500 450 600 550 600 550" stroke="#333333" stroke-width="8"/>
</svg> 