<?xml version="1.0" encoding="UTF-8" standalone="no"?>
<svg width="2048" height="2048" viewBox="0 0 2048 2048" fill="none" xmlns="http://www.w3.org/2000/svg">
    <!-- Fundo -->
    <rect width="2048" height="2048" fill="#1E88E5"/>
    
    <!-- Bola de vôlei grande -->
    <circle cx="1024" cy="924" r="500" fill="white"/>
    <path d="M1024 424C1246.64 424 1428 605.36 1428 828C1428 1050.64 1246.64 1232 1024 1232C801.36 1232 620 1050.64 620 828C620 605.36 801.36 424 1024 424ZM1024 1424C1346.64 1424 1608 1162.64 1608 840C1608 517.36 1346.64 256 1024 256C701.36 256 440 517.36 440 840C440 1162.64 701.36 1424 1024 1424Z" fill="#1E88E5"/>
    
    <!-- Linhas da bola -->
    <path d="M1024 424C1118.4 424 1206.92 458.48 1276.96 514.44L1024 828L771.04 514.44C841.08 458.48 929.6 424 1024 424Z" fill="#1E88E5"/>
    <path d="M1276.96 514.44C1351.52 584.48 1398 679.76 1398 785.24L1024 828L1276.96 514.44Z" fill="#1E88E5"/>
    <path d="M1398 785.24C1398 890.72 1351.52 986 1276.96 1056.04L1024 828L1398 785.24Z" fill="#1E88E5"/>
    <path d="M1276.96 1056.04C1206.92 1112.52 1118.4 1146 1024 1146L1024 828L1276.96 1056.04Z" fill="#1E88E5"/>
    <path d="M1024 1146C929.6 1146 841.08 1112.52 771.04 1056.04L1024 828L1024 1146Z" fill="#1E88E5"/>
    <path d="M771.04 1056.04C696.48 986 650 890.72 650 785.24L1024 828L771.04 1056.04Z" fill="#1E88E5"/>
    <path d="M650 785.24C650 679.76 696.48 584.48 771.04 514.44L1024 828L650 785.24Z" fill="#1E88E5"/>
    
    <!-- Texto -->
    <text x="1024" y="1600" text-anchor="middle" font-family="Arial" font-size="120" font-weight="bold" fill="white">Vôlei Zaga</text>
</svg> 